<svg width="83" height="85" viewBox="0 0 83 85" fill="none" xmlns="http://www.w3.org/2000/svg">
<path d="M27.6675 56.6676V59.5013V62.3323V65.166V67.9997V70.8337V73.6675V76.5012V79.3321V82.1662H30.4354H33.2004H35.9684H38.7333H41.5016H44.2665V79.3321H41.5016H38.7333V76.5012H35.9684V73.6675V70.8337H33.2004V67.9997V65.166V62.3323H35.9684V59.5013V56.6676H38.7333V53.8336H41.5016H44.2665V50.9999H47.0345H49.7994V48.1661H52.567H55.3353V45.3324V42.5015H52.567H49.7994H47.0345H44.2665H41.5016H38.7333H35.9684H33.2004H30.4354H27.6675V45.3324V48.1661V50.9999V53.8336V56.6676Z" fill="#C5C9CF"/>
<path d="M38.7333 82.1663H35.9684H33.2004H30.4354H27.6675V85H30.4354H33.2004H35.9684H38.7333H41.5016H44.2665H47.0345H49.7994H52.567H55.3353V82.1663H52.567H49.7994H47.0345H44.2665H41.5016H38.7333Z" fill="black"/>
<path d="M27.6674 48.1663V45.3325V42.5016H24.8994V45.3325V48.1663V51V53.8337V56.6677V59.5015V62.3324V65.1661V67.9998V70.8339V73.6676V76.5013V79.3323V82.1663H27.6674V79.3323V76.5013V73.6676V70.8339V67.9998V65.1661V62.3324V59.5015V56.6677V53.8337V51V48.1663Z" fill="black"/>
<path d="M55.3354 56.6676V59.5014V62.3323V65.166V67.9998V70.8338V73.6675V76.5013V79.3322V82.1662H58.1004V79.3322V76.5013V73.6675V70.8338V67.9998V65.166V62.3323V59.5014V56.6676V53.8336V50.9999V48.1662V45.3324V42.5015V39.6675H55.3354V42.5015V45.3324V48.1662V50.9999V53.8336V56.6676Z" fill="black"/>
<path d="M13.8338 36.8337H11.0688V39.6675H13.8338V36.8337Z" fill="#E6C7BC"/>
<path d="M11.0688 36.8337H8.30078V39.6675H11.0688V36.8337Z" fill="#B99285"/>
<path d="M49.7996 34.0001H47.0347V36.8339H49.7996V34.0001Z" fill="#AB7F71"/>
<path d="M47.0346 34.0001H44.2666V36.8339H47.0346V34.0001Z" fill="#AB7F71"/>
<path d="M44.2664 34.0001H41.5015V36.8339H44.2664V34.0001Z" fill="#AB7160"/>
<path d="M41.5014 31.166H38.7334V33.9997H41.5014V31.166Z" fill="#F39E85"/>
<path d="M66.4013 39.6675H69.1662H71.9343H74.7022V36.8338H77.4671H80.2351V34H77.4671V31.166H74.7022H71.9343H69.1662H66.4013V34H63.6333H60.8684H58.1004H55.3355H52.5672H49.7996V36.8338H47.0347H44.2667H41.5017V34H38.7334H35.9685V31.166H33.2005H30.4356H27.6677V28.3323H24.8997V25.4986H22.1348H19.3668V22.6676V19.8336H16.6018V16.9999V14.1661H13.8338H11.0689V16.9999H8.30097V19.8336H5.53297V22.6676V25.4986H2.76807V28.3323H5.53297H8.30097H11.0689V31.166H13.8338V34V36.8338V39.6675H16.6018H19.3668H22.1348H24.8997H27.6677H30.4356H33.2005H35.9685H38.7334H41.5017H44.2667H47.0347H49.7996H52.5672H55.3355H58.1004H60.8684H63.6333H66.4013Z" fill="#FF8080"/>
<path d="M66.401 34.0001V31.166H69.1659H71.9339H74.7019V28.3323V25.4986V22.6676H77.4668V19.8336H74.7019V16.9999H71.9339V14.1662H69.1659V11.3321H66.401H63.633V14.1662H60.8681H58.1001V11.3321H55.3352V8.4984V5.66777V2.83374H52.5669H49.7992H47.0343H44.2663H41.5014H38.7331H35.9682H33.2002H30.4353V5.66777V8.4984V11.3321H27.6673V14.1662H24.8993H22.1344H19.3664V11.3321H16.6015H13.8335V14.1662H16.6015V16.9999V19.8336H19.3664V22.6676V25.4986H22.1344H24.8993V28.3323H27.6673V31.166H30.4353H33.2002H35.9682V34.0001H38.7331V31.166V28.3323H41.5014V25.4986H44.2663V22.6676H47.0343H49.7992V25.4986H52.5669V28.3323V31.166V34.0001H55.3352H58.1001H60.8681H63.633H66.401Z" fill="#FF2A2A"/>
<path d="M55.3357 65.166V62.3323V59.5013V56.6676V53.8336V50.9999V48.1661H52.5674H49.7997V50.9999H47.0348H44.2668V53.8336H41.5019H38.7336V56.6676H35.9687V59.5013V62.3323H33.2007V65.166V67.9997V70.8338H35.9687V73.6675V76.5012H38.7336V79.3321H41.5019H44.2668V82.1662H47.0348H49.7997H52.5674H55.3357V79.3321V76.5012V73.6675V70.8338V67.9997V65.166Z" fill="#FAF8F6"/>
<path d="M41.5017 34H44.2666H47.0346H49.7995H52.5672V31.166V28.3323V25.4985H49.7995V22.6676H47.0346H44.2666V25.4985H41.5017V28.3323H38.7334V31.166H41.5017V34Z" fill="#FAF8F6"/>
<path d="M5.53297 28.3323H2.76807V31.166V34V36.8338H5.53297H8.30097H11.0689H13.8338V34V31.166H11.0689V28.3323H8.30097H5.53297Z" fill="#FAF8F6"/>
<path d="M77.4671 22.6676H74.7021V25.4985V28.3323V31.166H77.4671V34H80.2351V31.166V28.3323V25.4985V22.6676H77.4671Z" fill="#FAF8F6"/>
<path d="M58.1004 11.3321V14.1662H60.8684H63.6333V11.3321H66.4013V8.4984H63.6333H60.8684V5.66777H58.1004V2.83374H55.3354V5.66777V8.4984V11.3321H58.1004Z" fill="#FAF8F6"/>
<path d="M24.8999 2.83374V5.66777H22.135H19.367V8.4984H16.6021V11.3321H19.367V14.1662H22.135H24.8999H27.6679V11.3321H30.4358V8.4984V5.66777V2.83374H27.6679H24.8999Z" fill="#FAF8F6"/>
<path d="M33.2005 42.5015H35.9685H38.7334H41.5017H44.2666H47.0346H49.7995H52.5672H55.3355V39.6675H52.5672H49.7995H47.0346H44.2666H41.5017H38.7334H35.9685H33.2005H30.4356H27.6676H24.8996H22.1347H19.3667H16.6018H13.8338H11.0689H8.30091V36.8337H5.53291H2.768V34V31.166V28.3323V25.4985H0L0 28.3323L0 31.166L0 34L0 36.8337L0 39.6675H2.768V42.5015H5.53291H8.30091H11.0689H13.8338H16.6018H19.3667H22.1347H24.8996H27.6676H30.4356H33.2005Z" fill="#FF2A2A"/>
<path d="M77.4673 36.8337H74.7024V39.6675H71.9344H69.1664H66.4015H63.6335H60.8686H58.1006V42.5015H60.8686H63.6335H66.4015H69.1664H71.9344H74.7024H77.4673H80.2353V39.6675H83.0002V36.8337V34V31.166V28.3323V25.4985V22.6676H80.2353V25.4985V28.3323V31.166V34V36.8337H77.4673Z" fill="#FF2A2A"/>
<path d="M80.2353 19.8336H77.4673V22.6673H80.2353V19.8336Z" fill="#FF2A2A"/>
<path d="M5.53297 19.8336H2.76807V22.6677V25.4986H5.53297V22.6677V19.8336Z" fill="#FF2A2A"/>
<path d="M77.4671 16.9999H74.7021V19.8336H77.4671V16.9999Z" fill="#FF2A2A"/>
<path d="M8.30072 16.9999H5.53271V19.8336H8.30072V16.9999Z" fill="#FF2A2A"/>
<path d="M74.7021 14.1661H71.9341V16.9999H74.7021V14.1661Z" fill="#FF2A2A"/>
<path d="M11.0688 14.1661H8.30078V16.9999H11.0688V14.1661Z" fill="#FF2A2A"/>
<path d="M71.934 11.332H69.166V14.1658H71.934V11.332Z" fill="#FF2A2A"/>
<path d="M13.8338 11.332H11.0688V14.1658H13.8338V11.332Z" fill="#FF2A2A"/>
<path d="M69.1663 8.49841H66.4014V11.3321H69.1663V8.49841Z" fill="#FF2A2A"/>
<path d="M16.6015 8.49841H13.8335V11.3321H16.6015V8.49841Z" fill="#FF2A2A"/>
<path d="M66.4011 8.49835V5.66772H63.6331H60.8682V8.49835H63.6331H66.4011Z" fill="#FF2A2A"/>
<path d="M19.3665 5.66772H16.6016V8.49835H19.3665V5.66772Z" fill="#FF2A2A"/>
<path d="M60.8686 2.83374H58.1006V5.66746H60.8686V2.83374Z" fill="#FF2A2A"/>
<path d="M24.8996 2.83374H22.1347H19.3667V5.66777H22.1347H24.8996V2.83374Z" fill="#FF2A2A"/>
<path d="M41.5015 2.83373H44.2664H47.0344H49.7993H52.567H55.3353H58.1002V0L55.3353 0L52.567 0L49.7993 0L47.0344 0L44.2664 0L41.5015 0L38.7332 0L35.9683 0L33.2003 0L30.4354 0L27.6674 0L24.8994 0V2.83373H27.6674H30.4354H33.2003H35.9683H38.7332H41.5015Z" fill="#FF2A2A"/>
</svg>
