<svg width="815" height="141" viewBox="0 0 815 141" fill="none" xmlns="http://www.w3.org/2000/svg">
<path d="M39.5508 96.4219V61.2656H65.918V114H4.39453V26.1094H65.918V43.6875H30.7617V96.4219H39.5508ZM100.174 87.6328V96.4219H108.963V87.6328H100.174ZM135.33 43.6875V114H73.807V70.0547H108.963V61.2656H73.807V43.6875H135.33ZM239.899 43.6875V114H213.532V61.2656H204.743V114H178.376V61.2656H169.587V114H143.22V43.6875H187.165V52.4766H195.954V43.6875H239.899ZM282.945 70.0547V61.2656H274.155V70.0547H282.945ZM247.788 114V43.6875H309.312V87.6328H274.155V96.4219H309.312V114H247.788ZM343.568 52.4766H361.146V70.0547H343.568V114H317.201V26.1094H361.146V43.6875H343.568V52.4766ZM532.427 43.6875V61.2656H497.271V96.4219H532.427V114H470.904V43.6875H532.427ZM566.684 87.6328V96.4219H575.473V87.6328H566.684ZM601.84 43.6875V114H540.316V70.0547H575.473V61.2656H540.316V43.6875H601.84ZM671.252 43.6875V114H644.885V61.2656H636.096V114H609.729V43.6875H671.252ZM705.509 61.2656V96.4219H714.298V61.2656H705.509ZM740.665 26.1094V114H679.141V43.6875H714.298V26.1094H740.665ZM774.921 61.2656V96.4219H783.71V61.2656H774.921ZM810.077 43.6875V114H748.554V43.6875H810.077Z" fill="white"/>
<path d="M403.667 87.6676V90.5013V93.3323V96.166V98.9997V101.834V104.667V107.501V110.332V113.166H406.435H409.2H411.968H414.733H417.502H420.266V110.332H417.502H414.733V107.501H411.968V104.667V101.834H409.2V98.9997V96.166V93.3323H411.968V90.5013V87.6676H414.733V84.8336H417.502H420.266V81.9999H423.034H425.799V79.1661H428.567H431.335V76.3324V73.5015H428.567H425.799H423.034H420.266H417.502H414.733H411.968H409.2H406.435H403.667V76.3324V79.1661V81.9999V84.8336V87.6676Z" fill="#C5C9CF"/>
<path d="M414.733 113.166H411.968H409.2H406.435H403.667V116H406.435H409.2H411.968H414.733H417.502H420.266H423.034H425.799H428.567H431.335V113.166H428.567H425.799H423.034H420.266H417.502H414.733Z" fill="black"/>
<path d="M403.667 79.1663V76.3325V73.5016H400.899V76.3325V79.1663V82V84.8337V87.6677V90.5015V93.3324V96.1661V98.9998V101.834V104.668V107.501V110.332V113.166H403.667V110.332V107.501V104.668V101.834V98.9998V96.1661V93.3324V90.5015V87.6677V84.8337V82V79.1663Z" fill="black"/>
<path d="M431.335 87.6676V90.5014V93.3323V96.166V98.9998V101.834V104.668V107.501V110.332V113.166H434.1V110.332V107.501V104.668V101.834V98.9998V96.166V93.3323V90.5014V87.6676V84.8336V81.9999V79.1662V76.3324V73.5015V70.6675H431.335V73.5015V76.3324V79.1662V81.9999V84.8336V87.6676Z" fill="black"/>
<path d="M389.834 67.8337H387.069V70.6675H389.834V67.8337Z" fill="#E6C7BC"/>
<path d="M387.069 67.8337H384.301V70.6675H387.069V67.8337Z" fill="#B99285"/>
<path d="M425.8 65.0001H423.035V67.8339H425.8V65.0001Z" fill="#AB7F71"/>
<path d="M423.035 65.0001H420.267V67.8339H423.035V65.0001Z" fill="#AB7F71"/>
<path d="M420.266 65.0001H417.501V67.8339H420.266V65.0001Z" fill="#AB7160"/>
<path d="M417.501 62.166H414.733V64.9997H417.501V62.166Z" fill="#F39E85"/>
<path d="M442.401 70.6675H445.166H447.934H450.702V67.8338H453.467H456.235V65H453.467V62.166H450.702H447.934H445.166H442.401V65H439.633H436.868H434.1H431.336H428.567H425.8V67.8338H423.035H420.267H417.502V65H414.733H411.969V62.166H409.201H406.436H403.668V59.3323H400.9V56.4986H398.135H395.367V53.6676V50.8336H392.602V47.9999V45.1661H389.834H387.069V47.9999H384.301V50.8336H381.533V53.6676V56.4986H378.768V59.3323H381.533H384.301H387.069V62.166H389.834V65V67.8338V70.6675H392.602H395.367H398.135H400.9H403.668H406.436H409.201H411.969H414.733H417.502H420.267H423.035H425.8H428.567H431.336H434.1H436.868H439.633H442.401Z" fill="#FF8080"/>
<path d="M442.401 65.0001V62.166H445.166H447.934H450.702V59.3323V56.4986V53.6676H453.467V50.8336H450.702V47.9999H447.934V45.1662H445.166V42.3321H442.401H439.633V45.1662H436.868H434.1V42.3321H431.335V39.4984V36.6678V33.8337H428.567H425.799H423.034H420.266H417.501H414.733H411.968H409.2H406.435V36.6678V39.4984V42.3321H403.667V45.1662H400.899H398.134H395.366V42.3321H392.601H389.833V45.1662H392.601V47.9999V50.8336H395.366V53.6676V56.4986H398.134H400.899V59.3323H403.667V62.166H406.435H409.2H411.968V65.0001H414.733V62.166V59.3323H417.501V56.4986H420.266V53.6676H423.034H425.799V56.4986H428.567V59.3323V62.166V65.0001H431.335H434.1H436.868H439.633H442.401Z" fill="#FF2A2A"/>
<path d="M431.336 96.166V93.3323V90.5013V87.6676V84.8336V81.9999V79.1661H428.567H425.8V81.9999H423.035H420.267V84.8336H417.502H414.734V87.6676H411.969V90.5013V93.3323H409.201V96.166V98.9997V101.834H411.969V104.667V107.501H414.734V110.332H417.502H420.267V113.166H423.035H425.8H428.567H431.336V110.332V107.501V104.667V101.834V98.9997V96.166Z" fill="#FAF8F6"/>
<path d="M417.502 65H420.267H423.035H425.8H428.567V62.166V59.3323V56.4985H425.8V53.6676H423.035H420.267V56.4985H417.502V59.3323H414.733V62.166H417.502V65Z" fill="#FAF8F6"/>
<path d="M381.533 59.3323H378.768V62.166V65V67.8338H381.533H384.301H387.069H389.834V65V62.166H387.069V59.3323H384.301H381.533Z" fill="#FAF8F6"/>
<path d="M453.467 53.6676H450.702V56.4985V59.3323V62.166H453.467V65H456.235V62.166V59.3323V56.4985V53.6676H453.467Z" fill="#FAF8F6"/>
<path d="M434.1 42.3321V45.1662H436.868H439.633V42.3321H442.401V39.4984H439.633H436.868V36.6678H434.1V33.8337H431.335V36.6678V39.4984V42.3321H434.1Z" fill="#FAF8F6"/>
<path d="M400.9 33.8337V36.6678H398.135H395.367V39.4984H392.602V42.3321H395.367V45.1662H398.135H400.9H403.668V42.3321H406.436V39.4984V36.6678V33.8337H403.668H400.9Z" fill="#FAF8F6"/>
<path d="M409.2 73.5015H411.968H414.733H417.502H420.267H423.035H425.8H428.567H431.335V70.6675H428.567H425.8H423.035H420.267H417.502H414.733H411.968H409.2H406.436H403.668H400.9H398.135H395.367H392.602H389.834H387.069H384.301V67.8337H381.533H378.768V65V62.166V59.3323V56.4985H376V59.3323V62.166V65V67.8337V70.6675H378.768V73.5015H381.533H384.301H387.069H389.834H392.602H395.367H398.135H400.9H403.668H406.436H409.2Z" fill="#FF2A2A"/>
<path d="M453.467 67.8337H450.702V70.6675H447.934H445.166H442.401H439.633H436.869H434.101V73.5015H436.869H439.633H442.401H445.166H447.934H450.702H453.467H456.235V70.6675H459V67.8337V65V62.166V59.3323V56.4985V53.6676H456.235V56.4985V59.3323V62.166V65V67.8337H453.467Z" fill="#FF2A2A"/>
<path d="M456.235 50.8336H453.467V53.6673H456.235V50.8336Z" fill="#FF2A2A"/>
<path d="M381.533 50.8336H378.768V53.6677V56.4986H381.533V53.6677V50.8336Z" fill="#FF2A2A"/>
<path d="M453.467 47.9999H450.702V50.8336H453.467V47.9999Z" fill="#FF2A2A"/>
<path d="M384.301 47.9999H381.533V50.8336H384.301V47.9999Z" fill="#FF2A2A"/>
<path d="M450.702 45.1661H447.934V47.9999H450.702V45.1661Z" fill="#FF2A2A"/>
<path d="M387.069 45.1661H384.301V47.9999H387.069V45.1661Z" fill="#FF2A2A"/>
<path d="M447.934 42.332H445.166V45.1658H447.934V42.332Z" fill="#FF2A2A"/>
<path d="M389.834 42.332H387.069V45.1658H389.834V42.332Z" fill="#FF2A2A"/>
<path d="M445.166 39.4984H442.401V42.3321H445.166V39.4984Z" fill="#FF2A2A"/>
<path d="M392.601 39.4984H389.833V42.3321H392.601V39.4984Z" fill="#FF2A2A"/>
<path d="M442.401 39.4984V36.6677H439.633H436.868V39.4984H439.633H442.401Z" fill="#FF2A2A"/>
<path d="M395.366 36.6677H392.602V39.4984H395.366V36.6677Z" fill="#FF2A2A"/>
<path d="M436.869 33.8337H434.101V36.6675H436.869V33.8337Z" fill="#FF2A2A"/>
<path d="M400.9 33.8337H398.135H395.367V36.6678H398.135H400.9V33.8337Z" fill="#FF2A2A"/>
<path d="M417.502 33.8337H420.266H423.034H425.799H428.567H431.335H434.1V31H431.335H428.567H425.799H423.034H420.266H417.502H414.733H411.968H409.2H406.435H403.667H400.899V33.8337H403.667H406.435H409.2H411.968H414.733H417.502Z" fill="#FF2A2A"/>
</svg>
